<svg xmlns="http://www.w3.org/2000/svg" width="11" height="25" viewBox="0 0 11 25" aria-hidden="true"><path opacity=".15" d="M5.42.605C5.536.535 5.71.5 5.945.5h4.095c.117 0 .21.047.28.14.07.07.093.163.07.28L7.485 24.58a.61.61 0 0 1-.175.315.378.378 0 0 1-.28.105H3.075c-.257 0-.385-.14-.385-.42L5.07 5.4c0-.047-.024-.093-.07-.14-.047-.047-.094-.058-.14-.035l-3.465.945-.14.035c-.21 0-.292-.128-.245-.385l.245-3.01a.73.73 0 0 1 .385-.49L5.42.605z" fill="url(#paint0_linear_1271_24092)"/><defs><linearGradient id="paint0_linear_1271_24092" x1="4" y1="-3" x2="-.371" y2="28.901" gradientUnits="userSpaceOnUse"><stop/><stop offset=".579" stop-opacity=".716"/><stop offset="1" stop-opacity=".3"/></linearGradient></defs></svg>