<svg xmlns="http://www.w3.org/2000/svg" width="25" height="26" viewBox="0 0 18 26"><path opacity=".15" d="M15.94 13.31c.21.7.315 1.493.315 2.38 0 .583-.023 1.027-.07 1.33a11.266 11.266 0 0 1-1.05 3.5c-.747 1.493-1.808 2.66-3.185 3.5-1.353.84-2.905 1.26-4.655 1.26-1.727 0-3.185-.443-4.375-1.33S.937 21.862.54 20.345C.4 19.668.33 18.98.33 18.28c0-.397.012-.688.035-.875a.566.566 0 0 1 .14-.315.512.512 0 0 1 .315-.105h4.025c.28 0 .397.14.35.42 0 .723.058 1.295.175 1.715.117.607.385 1.085.805 1.435.42.327.957.49 1.61.49 1.26 0 2.193-.572 2.8-1.715.397-.7.653-1.517.77-2.45.047-.513.07-.887.07-1.12 0-.63-.082-1.155-.245-1.575-.397-1.097-1.202-1.645-2.415-1.645-.373 0-.992.292-1.855.875a.465.465 0 0 1-.28.105c-.117 0-.21-.07-.28-.21l-1.645-2.905a.537.537 0 0 1-.07-.21.44.44 0 0 1 .21-.385l5.985-4.865c.047-.047.07-.093.07-.14 0-.047-.035-.07-.105-.07h-7.98a.378.378 0 0 1-.28-.105c-.07-.093-.093-.198-.07-.315L2.885.92a.532.532 0 0 1 .14-.28A.435.435 0 0 1 3.34.5h14.14c.117 0 .21.047.28.14.07.07.093.163.07.28l-.455 3.85a.743.743 0 0 1-.315.525l-4.97 4.2c-.047.047-.07.093-.07.14.023.047.07.07.14.07 1.913.397 3.173 1.598 3.78 3.605z" fill="url(#paint0_linear_1271_24094)"/><defs><linearGradient id="paint0_linear_1271_24094" x1="8.5" y1="-3" x2="5.709" y2="29.259" gradientUnits="userSpaceOnUse"><stop/><stop offset=".579" stop-opacity=".716"/><stop offset="1" stop-opacity=".3"/></linearGradient></defs></svg>