<svg xmlns="http://www.w3.org/2000/svg" width="25" height="25" viewBox="0 0 19 25"><path opacity=".15" d="M7.77 20.555c-.047.047-.07.093-.07.14.023.047.07.07.14.07h9.205c.117 0 .21.047.28.14.07.07.093.163.07.28l-.385 3.395a.61.61 0 0 1-.175.315.512.512 0 0 1-.315.105H1.26a.378.378 0 0 1-.28-.105.379.379 0 0 1-.07-.315l.385-3.22c.047-.233.14-.408.28-.525 1.68-1.54 3.745-3.547 6.195-6.02l2.31-2.31c2.334-2.333 3.582-4.083 3.745-5.25l.035-.385c0-.723-.256-1.306-.77-1.75-.49-.443-1.155-.665-1.995-.665-.91 0-1.68.269-2.31.805-.607.514-.968 1.202-1.085 2.065l-.105.875a.61.61 0 0 1-.175.315.378.378 0 0 1-.28.105H3.115a.378.378 0 0 1-.28-.105c-.07-.093-.093-.198-.07-.315l.21-1.645c.35-1.913 1.33-3.441 2.94-4.585C7.525.804 9.427.22 11.62.22c1.47 0 2.742.269 3.815.805 1.073.514 1.89 1.237 2.45 2.17.56.91.84 1.949.84 3.115 0 1.12-.303 2.264-.91 3.43-.607 1.167-1.528 2.415-2.765 3.745-.77.864-1.738 1.855-2.905 2.975a238.366 238.366 0 0 1-3.535 3.325l-.84.77z" fill="url(#paint0_linear_1271_24093)"/><defs><linearGradient id="paint0_linear_1271_24093" x1="10" y1="-3" x2="7.346" y2="29.282" gradientUnits="userSpaceOnUse"><stop/><stop offset=".579" stop-opacity=".716"/><stop offset="1" stop-opacity=".3"/></linearGradient></defs></svg>